<?xml version="1.0" standalone="no"?>
<!DOCTYPE svg PUBLIC "-//W3C//DTD SVG 20010904//EN"
 "http://www.w3.org/TR/2001/REC-SVG-20010904/DTD/svg10.dtd">
<svg version="1.0" xmlns="http://www.w3.org/2000/svg"
 width="225.000000pt" height="225.000000pt" viewBox="0 0 225.000000 225.000000"
 preserveAspectRatio="xMidYMid meet">
<metadata>
Created by potrace 1.14, written by Peter Selinger 2001-2017
</metadata>
<g transform="translate(0.000000,225.000000) scale(0.100000,-0.100000)"
fill="#000000" stroke="none">
<path d="M0 1125 l0 -1125 1125 0 1125 0 0 1125 0 1125 -1125 0 -1125 0 0
-1125z m1121 656 c44 -44 51 -83 22 -131 -47 -81 -173 -59 -173 30 0 61 46 93
97 68 22 -10 29 -21 31 -51 3 -31 -1 -39 -22 -49 -39 -17 -76 3 -76 42 0 24 5
31 27 36 29 8 56 -17 46 -42 -7 -19 -43 -18 -43 1 0 8 5 15 11 15 5 0 7 -6 3
-12 -6 -10 -4 -10 7 0 10 9 10 15 1 24 -16 16 -47 -13 -39 -36 8 -20 51 -21
67 -1 21 25 -3 65 -38 65 -37 0 -52 -17 -52 -60 0 -43 14 -60 52 -60 68 0 107
49 83 106 -14 35 -51 54 -104 54 -74 0 -134 -66 -147 -162 -14 -103 24 -149
171 -208 58 -23 108 -46 111 -51 11 -19 56 -8 85 20 40 40 39 81 -2 115 -37
31 -62 33 -89 6 -25 -25 -25 -52 0 -75 38 -35 94 17 58 53 -21 21 -32 13 -13
-8 21 -23 9 -44 -21 -38 -24 4 -30 41 -9 58 23 19 65 -2 65 -34 0 -53 -65 -76
-94 -34 -38 54 -2 111 65 107 35 -3 42 0 65 33 29 40 26 71 -7 89 -25 13 -62
3 -40 -11 8 -4 20 -6 26 -4 19 8 25 -22 10 -42 -11 -16 -17 -16 -39 -6 -29 13
-34 43 -10 66 21 22 43 20 71 -6 29 -27 29 -57 1 -93 -21 -27 -21 -29 -5 -72
9 -25 14 -49 11 -54 -3 -5 8 -9 25 -9 71 0 112 40 92 91 -13 36 -45 42 -77 16
l-27 -20 12 21 c17 31 49 37 80 14 29 -21 36 -41 27 -78 -8 -31 -61 -64 -102
-64 -19 0 -38 -8 -50 -22 -11 -13 -30 -30 -43 -38 l-22 -15 45 -68 c25 -38 46
-73 46 -78 0 -5 -25 -9 -55 -9 -52 0 -55 1 -55 25 0 40 -30 103 -58 121 -14 9
-62 30 -105 45 -127 45 -176 96 -191 200 -21 141 73 258 208 259 43 0 53 -4
87 -39z m251 -260 c-7 -4 -8 -12 -2 -21 8 -13 10 -13 10 -1 0 8 2 12 5 9 8 -8
-6 -38 -17 -38 -5 0 -7 4 -4 9 3 4 -2 17 -10 27 -14 17 -15 17 -10 2 3 -10 1
-18 -4 -18 -6 0 -10 8 -10 19 0 13 7 19 26 19 14 0 21 -3 16 -7z m-27 -49 c-7
-8 -35 7 -35 18 0 6 7 6 20 -2 10 -7 17 -14 15 -16z m-515 -558 c24 -58 44
-104 45 -102 2 2 22 48 44 102 39 93 59 131 67 123 9 -9 65 -300 60 -312 -13
-36 -26 -7 -48 112 l-24 128 -48 -118 c-27 -64 -50 -117 -51 -117 -1 0 -24 53
-51 117 l-48 118 -25 -125 c-13 -69 -25 -127 -27 -129 -2 -2 -10 -1 -18 2 -15
6 -16 2 40 255 20 92 28 87 84 -54z m-245 -44 c67 -141 77 -181 41 -151 -7 6
-21 29 -31 51 l-18 41 -76 -3 -76 -3 -24 -43 c-22 -40 -45 -61 -56 -50 -9 9
145 320 156 316 6 -2 44 -73 84 -158z m751 0 c40 -85 72 -156 69 -158 -10 -10
-44 22 -60 57 l-18 41 -77 0 -77 0 -18 -41 c-17 -36 -50 -67 -61 -56 -9 8 147
318 158 315 6 -2 44 -73 84 -158z m109 95 c27 -36 52 -65 56 -65 3 0 27 27 53
60 45 59 70 79 83 67 3 -4 -22 -41 -56 -83 l-61 -77 0 -78 c0 -44 -4 -79 -8
-79 -22 0 -32 29 -32 91 0 66 0 67 -60 142 -33 42 -60 79 -60 82 0 3 8 5 18 5
11 0 39 -27 67 -65z m313 53 c16 -20 144 -299 139 -304 -11 -12 -35 11 -55 51
l-22 45 -75 0 -75 0 -22 -45 c-20 -40 -44 -63 -56 -51 -6 6 140 316 149 316 3
0 11 -6 17 -12z m-1167 -449 c25 -25 17 -39 -10 -15 -25 23 -66 18 -66 -8 0
-14 11 -22 39 -30 47 -13 66 -38 50 -63 -15 -25 -92 -25 -108 -1 -16 27 1 33
22 8 14 -18 25 -22 45 -16 43 10 36 43 -13 56 -52 14 -68 42 -40 70 26 26 55
25 81 -1z m167 -3 c25 -24 26 -79 2 -109 -55 -69 -154 1 -119 85 7 16 22 34
33 38 25 11 66 4 84 -14z m423 3 c25 -25 17 -39 -10 -15 -23 21 -65 18 -69 -5
-2 -12 9 -21 39 -31 50 -17 69 -40 53 -65 -20 -32 -96 -29 -108 3 -10 27 2 29
22 4 14 -18 25 -22 45 -16 44 11 35 42 -15 58 -33 10 -44 19 -46 37 -7 47 52
67 89 30z m420 2 c13 -11 20 -23 16 -28 -5 -4 -13 0 -18 10 -12 21 -65 23 -72
3 -7 -18 8 -30 56 -45 28 -10 37 -18 37 -35 0 -31 -19 -46 -56 -46 -31 0 -64
21 -64 41 0 14 8 11 30 -11 24 -24 43 -25 65 -4 20 20 12 29 -40 47 -46 16
-60 52 -29 74 25 18 48 16 75 -6z m421 -4 c10 -16 10 -27 -1 -27 -5 0 -12 7
-15 16 -9 23 -61 15 -61 -10 0 -14 10 -22 35 -29 51 -13 66 -30 52 -62 -20
-43 -112 -32 -112 14 0 11 5 9 20 -7 23 -24 50 -28 68 -10 21 21 13 36 -30 50
-57 18 -71 43 -39 69 26 21 68 19 83 -4z m-1702 -2 c9 -11 10 -22 3 -38 -6
-12 -7 -31 -2 -42 11 -29 11 -55 -1 -55 -5 0 -10 10 -10 23 0 31 -18 47 -52
47 -25 0 -28 -3 -28 -35 0 -19 -4 -35 -10 -35 -6 0 -10 32 -10 75 l0 75 49 0
c31 0 53 -5 61 -15z m108 8 c-43 -4 -48 -7 -48 -29 0 -21 4 -24 40 -24 22 0
40 -4 40 -10 0 -5 -18 -10 -40 -10 -36 0 -40 -2 -40 -25 0 -23 4 -25 45 -25
25 0 45 -4 45 -10 0 -5 -25 -10 -55 -10 l-55 0 0 75 0 75 58 -2 c56 -2 56 -2
10 -5z m490 -9 c11 -20 4 -54 -10 -54 -7 0 -7 -4 -1 -12 14 -18 22 -68 12 -68
-5 0 -9 10 -9 23 0 31 -18 47 -52 47 -24 0 -28 -4 -28 -29 0 -17 -4 -33 -10
-36 -6 -4 -10 22 -10 69 l0 76 50 0 c35 0 52 -5 58 -16z m125 9 l-33 -4 -2
-72 -2 -72 -3 72 -4 72 -32 4 c-18 2 0 4 38 4 39 0 55 -2 38 -4z m334 -9 c3
-9 1 -25 -6 -36 -10 -15 -10 -23 0 -34 10 -12 14 -12 20 -2 6 9 9 5 9 -13 0
-14 5 -30 12 -37 9 -9 9 -12 1 -12 -7 0 -15 5 -19 11 -4 8 -9 8 -17 0 -19 -19
-65 -13 -77 9 -12 22 2 60 21 60 6 0 6 7 -1 19 -5 11 -7 27 -4 35 8 21 53 21
61 0z m387 -6 c18 -29 -4 -53 -53 -56 -40 -3 -41 -4 -41 -38 0 -19 -4 -34 -10
-34 -6 0 -10 32 -10 76 l0 75 51 -3 c36 -2 55 -8 63 -20z m106 -40 c13 -35 25
-69 27 -75 3 -7 1 -13 -5 -13 -5 0 -13 11 -16 25 -5 20 -13 25 -40 25 -26 0
-35 -6 -45 -26 -6 -15 -14 -24 -17 -21 -10 9 48 147 61 147 7 0 23 -28 35 -62z"/>
<path d="M1201 1623 c-1 -23 40 -45 47 -25 7 23 7 25 -10 28 -10 1 -18 -2 -18
-8 0 -6 7 -7 16 -4 8 3 12 2 9 -4 -10 -17 -25 -11 -35 13 l-9 22 0 -22z"/>
<path d="M1160 1466 c0 -18 17 -29 30 -21 8 5 7 11 -1 21 -15 18 -29 18 -29 0z
m25 -6 c3 -5 1 -10 -4 -10 -6 0 -11 5 -11 10 0 6 2 10 4 10 3 0 8 -4 11 -10z"/>
<path d="M462 910 l-31 -70 66 0 c73 0 71 -8 30 87 -12 29 -25 53 -28 53 -3 0
-20 -31 -37 -70z"/>
<path d="M1212 910 l-31 -70 65 0 c35 0 64 3 64 8 0 12 -55 131 -61 132 -3 0
-20 -31 -37 -70z"/>
<path d="M1710 915 c-17 -37 -29 -70 -26 -72 2 -2 31 -3 64 -1 l61 3 -28 62
c-15 35 -30 66 -34 69 -4 4 -20 -24 -37 -61z"/>
<path d="M667 552 c-33 -36 -7 -112 38 -112 25 0 55 38 55 69 0 55 -58 82 -93
43z"/>
<path d="M230 541 c0 -27 3 -31 28 -31 36 0 55 13 50 36 -2 14 -13 20 -41 22
-35 3 -37 2 -37 -27z"/>
<path d="M830 540 c0 -26 3 -30 29 -30 32 0 56 22 47 45 -3 9 -18 15 -41 15
-32 0 -35 -2 -35 -30z"/>
<path d="M1330 556 c0 -21 21 -31 30 -15 5 7 6 17 4 21 -9 14 -34 9 -34 -6z"/>
<path d="M1314 485 c-11 -29 35 -61 51 -35 9 14 -13 50 -31 50 -8 0 -17 -7
-20 -15z"/>
<path d="M1670 540 c0 -30 2 -31 38 -28 32 3 37 6 37 28 0 22 -5 25 -37 28
-36 3 -38 2 -38 -28z"/>
<path d="M1822 535 c-17 -38 -15 -45 14 -45 22 0 24 3 18 23 -13 45 -20 49
-32 22z"/>
</g>
</svg>
